# xmcd
#
# Track frame offsets:
#	150
#	71042
#	177845
#	235937
#
# Disc length: 4364 seconds
#
# Revision: 1
# Processed by: cddbd v1.5.1PL0 Copyright (c) Steve Scherf et al.
# Submitted via: CDex 1.50Beta5
#
DISCID=30110a04
DTITLE=NAMCO - テイルズリング　アーカイブ　EPIC ONE　英雄の帰還
DYEAR=1900
DGENRE=Games
TTITLE0=アセリア・幻想の時空
TTITLE1=リーネ・運命の時空
TTITLE2=ラシュアン・永遠の時空
TTITLE3=白樺の森・幻想の時空
EXTD=
EXTT0=
EXTT1=
EXTT2=
EXTT3=
PLAYORDER=
